<svg xmlns="http://www.w3.org/2000/svg" xmlns:xlink="http://www.w3.org/1999/xlink" width="200" height="30" viewBox="0 0 200 30">
  <defs>
    <clipPath id="clip-path">
      <rect id="Rectangle_1" data-name="Rectangle 1" width="200" height="30" transform="translate(0 3)" fill="#fff"/>
    </clipPath>
  </defs>
  <g id="Group_1" data-name="Group 1" transform="translate(0 -3)" clip-path="url(#clip-path)">
    <path id="Path_1" data-name="Path 1" d="M175.5,15.575l-.451.258h.017a.119.119,0,0,0,.043-.071s.019-.113.031-.267v-.147a4.012,4.012,0,0,0-.033-.452.383.383,0,0,0-.157-.237l.451-.258a.355.355,0,0,1,.1.1.361.361,0,0,1,.054.133,3.134,3.134,0,0,1,.033.454v.147a1.963,1.963,0,0,1-.031.265.105.105,0,0,1-.031.066A.046.046,0,0,1,175.5,15.575Z" transform="translate(0.302 3)" fill="#1c3542"/>
    <path id="Path_2" data-name="Path 2" d="M175.136,15.487l.451-.258.275.225-.452.256Z" transform="translate(0.303 3)" fill="#7f8084"/>
    <path id="Path_3" data-name="Path 3" d="M175.41,15.71l.452-.256-.1.374-.451.258Z" transform="translate(0.303 3)" fill="#7f8084"/>
    <path id="Path_4" data-name="Path 4" d="M175.136,15.487l.274.237-.1.376-.241-.267a.117.117,0,0,0,.046-.071A2.152,2.152,0,0,1,175.136,15.487Z" transform="translate(0.303 3)" fill="#7f8084"/>
    <path id="Path_5" data-name="Path 5" d="M175.386,14.375l-.865-.383a.109.109,0,0,0-.053-.014.115.115,0,0,0-.053.014l-.451.255a.118.118,0,0,1,.053-.013.115.115,0,0,1,.053.013l.867.386h.014l.451-.258Z" transform="translate(0.301 3)" fill="#c14249"/>
    <path id="Path_6" data-name="Path 6" d="M174.952,14.64a.379.379,0,0,1,.157.237,3.788,3.788,0,0,1,.033.452v.147a2.043,2.043,0,0,0-.026.286.121.121,0,0,1-.034.066.1.1,0,0,1-.125,0h-.014l-.864-.6a.47.47,0,0,1-.166-.289,2.864,2.864,0,0,1-.017-.3,2.118,2.118,0,0,1,.015-.3.117.117,0,0,1,.014-.055.126.126,0,0,1,.04-.041.121.121,0,0,1,.055-.017.119.119,0,0,1,.057.011l.866.386Z" transform="translate(0.301 3)" fill="#4e89bc"/>
    <path id="Path_7" data-name="Path 7" d="M183.343,13.268l7.208,4.113a1.212,1.212,0,0,1,.517,1.115,2.523,2.523,0,0,1-.029.379l-7.206-4.113a3,3,0,0,0,.027-.379A1.206,1.206,0,0,0,183.343,13.268Z" transform="translate(0.317 3)" fill="#122229"/>
    <path id="Path_8" data-name="Path 8" d="M183.092,13.7a1.009,1.009,0,0,0-1,.095,3.068,3.068,0,0,0-.993,1.027,3,3,0,0,0-.41,1.356.957.957,0,0,0,.411.885l7.208,4.115a.963.963,0,0,1-.41-.887,2.973,2.973,0,0,1,.41-1.356,3.054,3.054,0,0,1,.992-1.027,1.02,1.02,0,0,1,1-.095Z" transform="translate(0.312 3)" fill="#3b3b3c"/>
    <path id="Path_9" data-name="Path 9" d="M189.287,17.91a3.058,3.058,0,0,0-1,1.026,3,3,0,0,0-.413,1.357c0,.876.635,1.23,1.411.79a3.056,3.056,0,0,0,.992-1.027,2.973,2.973,0,0,0,.41-1.356C190.694,17.825,190.064,17.47,189.287,17.91Z" transform="translate(0.325 3)" fill="#505052"/>
    <path id="Path_10" data-name="Path 10" d="M189.288,18.549a1.822,1.822,0,0,0-.592.611,1.78,1.78,0,0,0-.245.808c0,.523.38.736.842.473a1.837,1.837,0,0,0,.592-.612,1.791,1.791,0,0,0,.245-.808C190.131,18.5,189.752,18.287,189.288,18.549Zm.589.615a1.147,1.147,0,0,1-.145.521l.1.054-.24.343-.063-.111a1.069,1.069,0,0,1-.241.187.593.593,0,0,1-.241.078l-.062.18-.241-.062.1-.173a.424.424,0,0,1-.117-.159.414.414,0,0,1-.03-.194q0-.032,0-.064l-.142.057.094-.379h.128a1.336,1.336,0,0,1,.374-.521l-.024-.147.3-.173-.024.175a.321.321,0,0,1,.2-.016.317.317,0,0,1,.171.111l.128-.149.094.274-.14.1A.188.188,0,0,1,189.877,19.165Z" transform="translate(0.326 3)" fill="#c3c4c6"/>
    <path id="Path_11" data-name="Path 11" d="M189.541,19.347l-.043-.128.029-.036a.164.164,0,0,0-.075-.043.161.161,0,0,0-.087,0v.04l-.142.08v-.033a.689.689,0,0,0-.161.222h.021l-.043.175-.031.014v.014a.194.194,0,0,0,.012.089.212.212,0,0,0,.048.076l.014-.038.116.028-.014.043a.3.3,0,0,0,.1-.035.438.438,0,0,0,.1-.078l-.014-.026.115-.159.024.014a.543.543,0,0,0,.061-.237v-.024Zm-.241.376c-.108.062-.2.012-.2-.114a.43.43,0,0,1,.058-.191.436.436,0,0,1,.14-.145.124.124,0,0,1,.2.111.441.441,0,0,1-.207.338Z" transform="translate(0.327 3)" fill="#c3c4c6"/>
    <path id="Path_12" data-name="Path 12" d="M189.16,18.923l.053.308,0,.033.142-.08.008-.04.05-.365.024-.173-.307.173Z" transform="translate(0.327 3)" fill="#c3c4c6"/>
    <path id="Path_13" data-name="Path 13" d="M188.786,19.446l-.127,0-.092.381.142-.057.3-.121.034-.014.044-.177h-.029Z" transform="translate(0.326 3)" fill="#c3c4c6"/>
    <path id="Path_14" data-name="Path 14" d="M189.069,19.823l-.214.36-.1.173.248.062.063-.182.13-.379.014-.043-.113-.031Z" transform="translate(0.326 3)" fill="#c3c4c6"/>
    <path id="Path_15" data-name="Path 15" d="M189.513,19.569l-.024-.012-.113.159.015.026.132.229.065.109.246-.343-.1-.054Z" transform="translate(0.327 3)" fill="#c3c4c6"/>
    <path id="Path_16" data-name="Path 16" d="M189.794,18.874l-.265.31-.031.035.046.125.031-.024.3-.218.142-.1-.1-.272Z" transform="translate(0.327 3)" fill="#c3c4c6"/>
    <path id="Path_17" data-name="Path 17" d="M185.113,10.182a.331.331,0,0,0-.294,0l-2.012.847-.033-.021-.133.076,7.282,4.153.13-.073-.037-.021,2.012-.838a.331.331,0,0,1,.294,0Z" transform="translate(0.316 3)" fill="#5895c6"/>
    <path id="Path_18" data-name="Path 18" d="M175.815,17.544l7.208,4.113a1.208,1.208,0,0,1,.517,1.112,2.694,2.694,0,0,1-.029.381L176.3,19.037a2.426,2.426,0,0,0,.029-.381A1.227,1.227,0,0,0,175.815,17.544Z" transform="translate(0.304 3)" fill="#122229"/>
    <path id="Path_19" data-name="Path 19" d="M175.563,17.977a1.01,1.01,0,0,0-1,.1,3.054,3.054,0,0,0-.992,1.027,2.986,2.986,0,0,0-.41,1.356.944.944,0,0,0,.082.5.967.967,0,0,0,.328.388l7.208,4.122a.967.967,0,0,1-.328-.388.944.944,0,0,1-.082-.5,3,3,0,0,1,.41-1.356,3.055,3.055,0,0,1,.992-1.027,1.018,1.018,0,0,1,1-.1Z" transform="translate(0.299 3)" fill="#3b3b3c"/>
    <path id="Path_20" data-name="Path 20" d="M181.758,22.187a3.055,3.055,0,0,0-.992,1.027,3,3,0,0,0-.41,1.356c0,.876.634,1.23,1.411.79a3.073,3.073,0,0,0,.991-1.028,3.012,3.012,0,0,0,.409-1.357C183.165,22.1,182.536,21.746,181.758,22.187Z" transform="translate(0.312 3)" fill="#505052"/>
    <path id="Path_21" data-name="Path 21" d="M181.757,22.825a1.85,1.85,0,0,0-.591.612,1.789,1.789,0,0,0-.245.808c0,.525.379.736.844.473a1.824,1.824,0,0,0,.591-.612,1.791,1.791,0,0,0,.245-.808C182.6,22.773,182.223,22.563,181.757,22.825Zm.507.324-.265.31a.155.155,0,0,0-.074-.043.159.159,0,0,0-.087,0l.05-.364a.327.327,0,0,1,.2-.015A.32.32,0,0,1,182.264,23.15Zm-.7.736a.43.43,0,0,1,.058-.191.436.436,0,0,1,.14-.145c.111-.064.2-.014.2.109a.435.435,0,0,1-.058.192.428.428,0,0,1-.14.146C181.651,24.058,181.562,24.008,181.562,23.885Zm.07-.684.051.305a.636.636,0,0,0-.159.222h-.268A1.344,1.344,0,0,1,181.632,23.2Zm-.454.842.3-.121a.209.209,0,0,0,.014.089.218.218,0,0,0,.049.076l-.215.36a.417.417,0,0,1-.117-.16.407.407,0,0,1-.03-.2Zm.584.393a.565.565,0,0,1-.241.076l.133-.379a.3.3,0,0,0,.1-.038.471.471,0,0,0,.1-.076l.135.237a1.017,1.017,0,0,1-.224.177Zm.439-.473-.214-.114a.528.528,0,0,0,.06-.237V23.6l.3-.218v.062a1.114,1.114,0,0,1-.143.516Z" transform="translate(0.313 3)" fill="#c3c4c6"/>
    <path id="Path_22" data-name="Path 22" d="M183.129,15.762l-7.221-4.094a1.484,1.484,0,0,0-.192.426l-.9,3.471,7.208,4.113.9-3.471A1.393,1.393,0,0,1,183.129,15.762Z" transform="translate(0.302 3)" fill="#4e89bc"/>
    <path id="Path_23" data-name="Path 23" d="M175.328,15.648l6.276,3.58.74-2.858-6.273-3.58Z" transform="translate(0.303 3)" fill="#bbe4e9"/>
    <path id="Path_24" data-name="Path 24" d="M175.153,15.691l6.559,3.743.805-3.107-6.559-3.741Zm7.2.681-.743,2.856-6.272-3.578.742-2.858Z" transform="translate(0.303 3)" fill="#ecebeb"/>
    <path id="Path_25" data-name="Path 25" d="M179.159,21.936l-7.208-4.113a2.4,2.4,0,0,0-.625.772,2.37,2.37,0,0,0-.257.953v1.81a.38.38,0,0,0,.034.2.4.4,0,0,0,.134.16l7.209,4.113a.4.4,0,0,1-.135-.16.389.389,0,0,1-.034-.2v-1.81a2.369,2.369,0,0,1,.257-.953A2.419,2.419,0,0,1,179.159,21.936Z" transform="translate(0.296 3)" fill="#4e89bc"/>
    <path id="Path_26" data-name="Path 26" d="M173.2,21.962a7.229,7.229,0,0,0,1.469,1.115,4.62,4.62,0,0,0,1.47.563h.017l-2.97-1.7Z" transform="translate(0.299 3)" fill="#7f8084"/>
    <path id="Path_27" data-name="Path 27" d="M176.339,22.979,173,21.086c-.241-.133-.241-.05-.241.061a.365.365,0,0,0,0,.047l3.838,2.189a.151.151,0,0,0,0-.043C176.593,23.218,176.566,23.112,176.339,22.979Z" transform="translate(0.299 3)" fill="#7f8084"/>
    <path id="Path_28" data-name="Path 28" d="M173.009,21.716l3.322,1.893a.4.4,0,0,0,.212-.137l-3.746-2.13A2.149,2.149,0,0,0,173.009,21.716Z" transform="translate(0.299 3)" fill="#7f8084"/>
    <path id="Path_29" data-name="Path 29" d="M176.339,22.861,173,20.968c-.167-.095-.355-.163-.353.133a1.863,1.863,0,0,0,.512.972,7.272,7.272,0,0,0,1.513,1.152,4.667,4.667,0,0,0,1.513.575c.306-.007.509-.163.509-.393a.593.593,0,0,0-.1-.324A.61.61,0,0,0,176.339,22.861Zm.3.547v.128l-.092-.052a.393.393,0,0,1-.211.137h.014v.128l-.19-.107h-.017a4.676,4.676,0,0,1-1.47-.563,7.263,7.263,0,0,1-1.47-1.115l-.016-.021-.191-.107v-.128h.015a2.075,2.075,0,0,1-.212-.381l-.056-.031v-.128a.376.376,0,0,1,0-.047c0-.111.017-.194.241-.062l3.339,1.893c.241.132.253.237.253.35a.152.152,0,0,1,0,.043Z" transform="translate(0.298 3)" fill="#dedede"/>
    <path id="Path_30" data-name="Path 30" d="M176.59,23.37l-3.836-2.189-.012,0,0,.125.055.033,3.744,2.137.094.052,0-.125Z" transform="translate(0.298 3)" fill="#dedede"/>
    <path id="Path_31" data-name="Path 31" d="M176.334,23.609l-3.322-1.9L173,21.706v.125l.188.109,2.974,1.7.188.109v-.128Z" transform="translate(0.299 3)" fill="#dedede"/>
    <path id="Path_32" data-name="Path 32" d="M179.158,21.936l-7.209-4.113,2.871-2.26,7.209,4.115Z" transform="translate(0.297 3)" fill="#5895c6"/>
    <path id="Path_33" data-name="Path 33" d="M172.241,18.365a.675.675,0,0,0-.816.059,2.747,2.747,0,0,0-.219.438V18.9c0,.537.529.946.91.587C172.361,19.233,172.6,18.625,172.241,18.365Zm-.121.741c-.241.457-.608.237-.692-.031a.427.427,0,0,1,.113-.472.443.443,0,0,1,.231-.111.453.453,0,0,1,.256.034.426.426,0,0,1,.091.58Z" transform="translate(0.296 3)" fill="#fff"/>
    <path id="Path_34" data-name="Path 34" d="M171.9,18.673a.245.245,0,0,0-.176.007.24.24,0,0,0-.125.123c-.094.213.065.414.241.36S172.1,18.758,171.9,18.673Z" transform="translate(0.296 3)" fill="#fff"/>
    <path id="Path_35" data-name="Path 35" d="M171.984,18.5a.444.444,0,0,0-.313.007.429.429,0,0,0-.227.211.42.42,0,0,0,.41.632C172.107,19.273,172.358,18.658,171.984,18.5Zm0,.516c-.132.237-.352.166-.4-.017-.06-.237.176-.414.341-.319a.251.251,0,0,1,.1.156A.248.248,0,0,1,171.984,19.018Z" transform="translate(0.296 3)" fill="#b6b5b9"/>
    <path id="Path_36" data-name="Path 36" d="M186.24,13.474a17.455,17.455,0,0,1,2.722-1.2.381.381,0,0,1,.36,0,.372.372,0,0,1,.136.123.367.367,0,0,1,.059.173l.221,1.569.155,1.081.13-.073,2.011-.838c.241-.109.432.019.437.3l.036,2.892a1.045,1.045,0,0,1-.138.475,1.067,1.067,0,0,1-.345.361l-.965.549a2.521,2.521,0,0,0,.029-.379c0-1.1-.8-1.548-1.773-.994a3.846,3.846,0,0,0-1.254,1.288,3.774,3.774,0,0,0-.522,1.706,2.026,2.026,0,0,0,.029.348l-4.062,2.3a2.553,2.553,0,0,0,.028-.381c0-1.1-.8-1.545-1.775-.991a3.85,3.85,0,0,0-1.247,1.292A3.758,3.758,0,0,0,180,24.77a1.9,1.9,0,0,0,.029.346l-1.178.67c-.321.18-.581.035-.581-.327v-1.81a2.356,2.356,0,0,1,.26-.95,2.408,2.408,0,0,1,.625-.768l2.868-2.257.9-3.471a1.528,1.528,0,0,1,.521-.788A24.149,24.149,0,0,1,186.24,13.474Z" transform="translate(0.308 3)" fill="#45719a"/>
    <path id="Path_37" data-name="Path 37" d="M188.87,12.906a16.983,16.983,0,0,0-2.526,1.105l.089,2.96,2.895-1.656-.34-2.392C188.984,12.9,188.937,12.882,188.87,12.906Z" transform="translate(0.322 3)" fill="#abcdd1"/>
    <path id="Path_38" data-name="Path 38" d="M188.9,12.686a17.126,17.126,0,0,0-2.654,1.183l-.094.054.094,3.365,3.291-1.867-.372-2.6C189.152,12.686,189.046,12.636,188.9,12.686Zm-2.47,4.285-.082-2.96a17.018,17.018,0,0,1,2.526-1.105c.067-.024.113,0,.118.024l.333,2.395Z" transform="translate(0.322 3)" fill="#cfd0d1"/>
    <path id="Path_39" data-name="Path 39" d="M183.414,16.105l-.757,3.005,3-1.692.056-3.038a26.893,26.893,0,0,0-2.2,1.574A.342.342,0,0,0,183.414,16.105Z" transform="translate(0.316 3)" fill="#abcdd1"/>
    <path id="Path_40" data-name="Path 40" d="M183.492,15.774a.73.73,0,0,0-.24.364l-.837,3.313,3.435-1.948.075-3.455-.1.062A26.156,26.156,0,0,0,183.492,15.774Zm2.172,1.633-3,1.7.758-3.005a.34.34,0,0,1,.115-.151,26.888,26.888,0,0,1,2.2-1.574Z" transform="translate(0.315 3)" fill="#cfd0d1"/>
    <path id="Path_41" data-name="Path 41" d="M177.472,22.243c-.171.563.355,1.091.735.895a.528.528,0,0,0,.207-.152,1.434,1.434,0,0,0,.155-.255.865.865,0,0,0,.089-.293.5.5,0,0,0-.188-.516.679.679,0,0,0-.28-.1.686.686,0,0,0-.3.027.675.675,0,0,0-.256.152A.654.654,0,0,0,177.472,22.243Zm.874.417c-.241.454-.606.237-.693-.031a.435.435,0,0,1,.118-.468.455.455,0,0,1,.485-.081.425.425,0,0,1,.09.58Z" transform="translate(0.307 3)" fill="#fff"/>
    <path id="Path_42" data-name="Path 42" d="M178.05,22.721c.178-.057.27-.379.091-.473a.245.245,0,0,0-.184,0,.226.226,0,0,0-.079.049.24.24,0,0,0-.055.076C177.727,22.575,177.886,22.776,178.05,22.721Z" transform="translate(0.307 3)" fill="#fff"/>
    <path id="Path_43" data-name="Path 43" d="M178.092,22.91c.282-.1.482-.7.127-.849a.442.442,0,0,0-.312.007.435.435,0,0,0-.226.21C177.508,22.671,177.835,23,178.092,22.91Zm.05-.67a.244.244,0,0,1,.063.336c-.135.237-.355.166-.4-.017C177.742,22.328,177.981,22.151,178.142,22.241Z" transform="translate(0.307 3)" fill="#b6b5b9"/>
    <path id="Path_44" data-name="Path 44" d="M182.138,8.166a.456.456,0,0,0-.381,0,17.37,17.37,0,0,0-2.722,1.207,24.241,24.241,0,0,0-2.8,1.945,1.544,1.544,0,0,0-.329.362l7.22,4.082a1.607,1.607,0,0,1,.317-.343,24.1,24.1,0,0,1,2.8-1.945,17.363,17.363,0,0,1,2.722-1.2.464.464,0,0,1,.381,0Z" transform="translate(0.304 3)" fill="#c14249"/>
    <path id="Path_45" data-name="Path 45" d="M175.1,16.02a2.531,2.531,0,0,0-.966,2.451A1.707,1.707,0,0,1,175.1,16.02Z" transform="translate(0.301 3)" fill="#c0c1c3"/>
    <path id="Path_46" data-name="Path 46" d="M178.182,20.771c1.112-.487,1.879-.438,2.654-1.5a1.808,1.808,0,0,1-.326.636,1.853,1.853,0,0,1-.55.465A4.491,4.491,0,0,1,178.182,20.771Z" transform="translate(0.308 3)" fill="#c0c1c3"/>
    <path id="Path_47" data-name="Path 47" d="M178.618,25c.057.028.065.087,0,.142a.9.9,0,0,1-.531.149,2.608,2.608,0,0,1-.91-.343l-5.94-3.372a1.421,1.421,0,0,1-.605-.516c-.051-.092.152-.267.26-.3a.362.362,0,0,1,.241,0c.043.038.024.118.07.218s.132.185.451.364l5.952,3.374a1.705,1.705,0,0,0,.651.251C178.424,24.99,178.562,24.99,178.618,25Z" transform="translate(0.295 3)" fill="#dedede"/>
    <path id="Path_48" data-name="Path 48" d="M178.627,25.144a.9.9,0,0,1-.531.149,2.6,2.6,0,0,1-.909-.343l-5.949-3.372a1.417,1.417,0,0,1-.606-.516.092.092,0,0,1,0-.033v.45a.053.053,0,0,0,0,.031,1.394,1.394,0,0,0,.6.516l5.952,3.374a2.645,2.645,0,0,0,.907.341.9.9,0,0,0,.531-.147.111.111,0,0,0,.038-.076v-.45A.13.13,0,0,1,178.627,25.144Z" transform="translate(0.295 3)" fill="#c6c7c8"/>
    <path id="Path_49" data-name="Path 49" d="M173.093,23.98l2.23,1.264,0-1.1L173.1,22.877Z" transform="translate(0.299 3)" fill="#e6e7e8"/>
    <path id="Path_50" data-name="Path 50" d="M182.87,19.517a.33.33,0,0,0,.031.1l-.451.255a.29.29,0,0,1-.031-.1Z" transform="translate(0.315 3)" fill="#7f8084"/>
    <path id="Path_51" data-name="Path 51" d="M182.839,19.217a2.756,2.756,0,0,0,.031.3l-.451.267a2.365,2.365,0,0,1-.029-.3Z" transform="translate(0.315 3)" fill="#7f8084"/>
    <path id="Path_52" data-name="Path 52" d="M182.39,19.505a.059.059,0,0,1,.029-.05l.42-.237-.241-.083a.062.062,0,0,0-.046,0l-.4.237a.057.057,0,0,0-.022.024.051.051,0,0,0,0,.032l.081.409a.06.06,0,0,0,.019.03.059.059,0,0,0,.034.012h.2a.292.292,0,0,1-.032-.1A2.582,2.582,0,0,1,182.39,19.505Z" transform="translate(0.315 3)" fill="#7f8084"/>
    <path id="Path_53" data-name="Path 53" d="M183.043,18.6h-.014a.107.107,0,0,0-.108,0l-.452.237a.113.113,0,0,1,.111,0l.867.6.449-.258Z" transform="translate(0.315 3)" fill="#5895c6"/>
    <path id="Path_54" data-name="Path 54" d="M184.009,20.156l-.451.256a.14.14,0,0,0,.043-.043.128.128,0,0,0,.019-.057,2.439,2.439,0,0,0,0-.58.468.468,0,0,0-.163-.289l.448-.258a.467.467,0,0,1,.167.289,2.846,2.846,0,0,1,.017.3,1.764,1.764,0,0,1-.02.282.127.127,0,0,1-.018.057A.129.129,0,0,1,184.009,20.156Z" transform="translate(0.317 3)" fill="#c14249"/>
    <path id="Path_55" data-name="Path 55" d="M182.58,18.838l.867.6a.468.468,0,0,1,.163.289,2.439,2.439,0,0,1,0,.58.117.117,0,0,1-.015.055.118.118,0,0,1-.041.041.122.122,0,0,1-.055.017.12.12,0,0,1-.057-.011l-.861-.386a.38.38,0,0,1-.157-.246,2.552,2.552,0,0,1-.028-.3v-.152a2.391,2.391,0,0,1,.036-.414.089.089,0,0,1,.018-.044.1.1,0,0,1,.038-.03.1.1,0,0,1,.047-.009A.1.1,0,0,1,182.58,18.838Z" transform="translate(0.315 3)" fill="#4e89bc"/>
    <path id="Path_56" data-name="Path 56" d="M184.441,17.12,184.4,30l-1.175-.667.044-12.877Z" transform="translate(0.317 3)" fill="#c0c1c3"/>
    <path id="Path_57" data-name="Path 57" d="M184.439,17.12l.932-.53-.046,12.88-.932.53Z" transform="translate(0.319 3)" fill="#abacaf"/>
    <path id="Path_58" data-name="Path 58" d="M183.264,16.455l.932-.53,1.177.665-.932.53Z" transform="translate(0.317 3)" fill="#dedede"/>
    <path id="Path_59" data-name="Path 59" d="M197.569,9.673l-.046,12.88-1.175-.667.044-12.877Z" transform="translate(0.339 3)" fill="#c0c1c3"/>
    <path id="Path_60" data-name="Path 60" d="M197.567,9.673l.932-.53-.046,12.88-.932.53Z" transform="translate(0.341 3)" fill="#abacaf"/>
    <path id="Path_61" data-name="Path 61" d="M196.392,9.009l.931-.53,1.178.665-.932.53Z" transform="translate(0.339 3)" fill="#dedede"/>
    <path id="Path_62" data-name="Path 62" d="M182.791,18.156l-.417,1.07-14.492-8.043-.413-1.54Z" transform="translate(0.289 3)" fill="#c0c1c3"/>
    <path id="Path_63" data-name="Path 63" d="M182.766,18.157l16.919-9.643-.42,1.07-16.916,9.643Z" transform="translate(0.315 3)" fill="#abacaf"/>
    <path id="Path_64" data-name="Path 64" d="M167.47,9.643,184.386,0l15.324,8.514-16.919,9.643Z" transform="translate(0.289 3)" fill="#d7d7d8"/>
    <path id="Path_65" data-name="Path 65" d="M195.5,8.474l-12.412,7.116L171.268,8.848l12.313-7.085Z" transform="translate(0.296 3)" fill="#f2f1f0"/>
    <path id="Path_66" data-name="Path 66" d="M178.629,8.436l-2.576-1.458-1.069.014L172.3,8.521l-.019.54,2.692,1.526.954-.012,2.683-1.531Z" transform="translate(0.298 3)" fill="#5895c6"/>
    <path id="Path_67" data-name="Path 67" d="M182.48,10.62,179.9,9.162l-1.071.014-2.681,1.529-.019.542,2.693,1.524.953-.012,2.683-1.529Z" transform="translate(0.304 3)" fill="#5895c6"/>
    <path id="Path_68" data-name="Path 68" d="M186.331,12.806l-2.576-1.46-1.071.014L180,12.889l-.019.542,2.692,1.524.835-.009,2.8-1.6Z" transform="translate(0.311 3)" fill="#5895c6"/>
    <path id="Path_69" data-name="Path 69" d="M182.639,6.148l-2.576-1.46-1.071.017-2.683,1.529-.022.608L178.863,8.3l1.071-.014,2.683-1.529Z" transform="translate(0.305 3)" fill="#5895c6"/>
    <path id="Path_70" data-name="Path 70" d="M186.49,8.332l-2.576-1.458-1.071.014L180.16,8.417l-.022.608,2.576,1.458,1.071-.014,2.683-1.529Z" transform="translate(0.311 3)" fill="#5895c6"/>
    <path id="Path_71" data-name="Path 71" d="M190.341,10.518l-2.576-1.46-1.071.014L184.01,10.6l-.021.608,2.576,1.46.953-.014,2.8-1.6Z" transform="translate(0.318 3)" fill="#5895c6"/>
    <path id="Path_72" data-name="Path 72" d="M186.647,3.859,184.07,2.4,183,2.414l-2.683,1.529-.019.608,2.576,1.46L183.942,6l2.683-1.529Z" transform="translate(0.312 3)" fill="#5895c6"/>
    <path id="Path_73" data-name="Path 73" d="M190.5,6.044l-2.577-1.458L186.85,4.6l-2.683,1.529-.019.611,2.576,1.458,1.069-.014,2.683-1.529Z" transform="translate(0.318 3)" fill="#5895c6"/>
    <path id="Path_74" data-name="Path 74" d="M194.349,8.228,191.771,6.77l-1.071.014-2.683,1.529L188,8.921l2.579,1.458.951-.012,2.8-1.6Z" transform="translate(0.325 3)" fill="#5895c6"/>
    <path id="Path_75" data-name="Path 75" d="M195.478,8.474l0,.6L183.064,16.19l0-.6Z" transform="translate(0.316 3)" fill="#c7cbcf"/>
    <path id="Path_76" data-name="Path 76" d="M183.086,15.589l0,.6L171.265,9.446l0-.6Z" transform="translate(0.296 3)" fill="#d6dadd"/>
    <path id="Path_77" data-name="Path 77" d="M.07,15.5V12.53H7.327c.072-1.368.1-2.759.1-4.15h3.168c0,1.391-.048,2.783-.118,4.15h8.014c-.118,3.178-.5,10.435-1.689,13.126C15.923,27.672,14.2,28,12.188,28c-.567,0-1.112-.047-1.689-.071L9.79,24.851c.724.069,1.561.14,2.294.14,1.561,0,1.891-.488,2.27-2.042a50.673,50.673,0,0,0,.873-7.442H10.212A17.348,17.348,0,0,1,8.06,22.5,17.084,17.084,0,0,1,2.316,28.23L0,25.937C4.3,23.292,6.311,20.464,7.045,15.5Z" fill="#344c68"/>
    <path id="Path_78" data-name="Path 78" d="M73.663,17.007V19.95H59.407V17.007Z" transform="translate(0.103)" fill="#344c68"/>
    <path id="Path_79" data-name="Path 79" d="M34.664,17.007V19.95H20.408V17.007Z" transform="translate(0.035)" fill="#344c68"/>
    <path id="Path_80" data-name="Path 80" d="M36.222,24.588a27.035,27.035,0,0,0,4.871-7.35l2.765,1.391a30.091,30.091,0,0,1-4.987,7.78ZM56.728,12.833v2.929H48.656v9.505c0,1.692-.637,2.575-1.607,2.9a14.114,14.114,0,0,1-3.759.348l-.755-3.06c.543,0,1.061.024,1.583.024,1.158,0,1.37-.187,1.37-1.046v-8.67H36.955V12.833h8.533V8.611h3.168v4.221h5.066A3.22,3.22,0,0,1,52.084,11.4a3.125,3.125,0,0,1-.337-2.124,3.167,3.167,0,0,1,1.119-1.848,3.289,3.289,0,0,1,4.125,0A3.167,3.167,0,0,1,58.11,9.281a3.125,3.125,0,0,1-.337,2.124,3.22,3.22,0,0,1-1.638,1.428Zm.591,11.711L54.53,26.235a49.761,49.761,0,0,0-4.386-7.4l2.6-1.6a49.979,49.979,0,0,1,4.564,7.3ZM53.244,9.886a1.633,1.633,0,0,0,.285.92,1.682,1.682,0,0,0,.758.61,1.72,1.72,0,0,0,.976.094,1.7,1.7,0,0,0,.865-.453,1.648,1.648,0,0,0,.462-.848,1.627,1.627,0,0,0-.1-.957,1.664,1.664,0,0,0-.622-.743,1.75,1.75,0,0,0-1.588-.158,1.672,1.672,0,0,0-.551.359,1.635,1.635,0,0,0-.366.54A1.612,1.612,0,0,0,53.244,9.886Z" transform="translate(0.063)" fill="#344c68"/>
    <path id="Path_81" data-name="Path 81" d="M90.031,20.159,88.209,22.9a45.617,45.617,0,0,0-8.393-5.173V28.578H76.554V8.311h3.262v6.006A56,56,0,0,1,90.031,20.159Z" transform="translate(0.132)" fill="#344c68"/>
    <path id="Path_82" data-name="Path 82" d="M96.851,28.32H94.233V18.571a12.806,12.806,0,0,1-1.284,1.42l-.924-3.4a13.6,13.6,0,0,0,2.456-3.947A13.638,13.638,0,0,0,95.6,8.427L98.17,8.7a18.008,18.008,0,0,1-1.327,5.206ZM112.879,26.1,111.4,28.386a14.52,14.52,0,0,1-4.958-2.776l1.523-1.536h-5.207l1.566,1.474a12.484,12.484,0,0,1-5.261,2.84l-1.349-2.284a11.386,11.386,0,0,0,4.7-2.028H98v-2.26h14.68v2.26h-4.342a11.485,11.485,0,0,0,4.538,2.026ZM111.51,9.065V20.684H99.475V9.058Zm-9.481,3.348h6.981v-1.33H102.02Zm0,3.05h6.981V14.106H102.02Zm0,3.221h6.981v-1.42H102.02Z" transform="translate(0.159)" fill="#344c68"/>
    <path id="Path_83" data-name="Path 83" d="M115.642,16.673a19.483,19.483,0,0,0,5.067-2.366l.738,2.475a22.331,22.331,0,0,1-5.1,2.6Zm6.045,2.111V9.7h2.61a7.308,7.308,0,0,0,.5-1.365h2.936A14.117,14.117,0,0,1,127.21,9.7h3.544v9.087H127.5V19.83h8.878v2.432h-6.727a26.123,26.123,0,0,0,7.025,3.242l-1.523,2.563a26.167,26.167,0,0,1-7.654-4.841v5.206h-2.654V23.462a26.374,26.374,0,0,1-7.744,4.65l-1.392-2.624a23.669,23.669,0,0,0,7.2-3.22h-6.936V19.83h8.873V18.784Zm-.326-7.1-1.544,2.153a15.934,15.934,0,0,0-3.783-2.624l1.413-2.078a17.436,17.436,0,0,1,3.913,2.546Zm2.785.085v1.514h4.132V11.77Zm0,3.284v1.621h4.132V15.052Zm12.723,1.983-1.689,2.411a17.546,17.546,0,0,0-4.372-3.157l1.447-2.22a20.124,20.124,0,0,1,4.613,2.963Zm-3.981-3.008-1.739-1.94a19.794,19.794,0,0,0,3.349-3.1l1.893,1.751a21.141,21.141,0,0,1-3.5,3.282Z" transform="translate(0.2)" fill="#344c68"/>
    <path id="Path_84" data-name="Path 84" d="M143.614,10.251V8.459h2.63v1.791h4.07V12.6h-1.207a30.465,30.465,0,0,1-.762,3.649h2.285V18.6H139.112V16.247h2.369a20.6,20.6,0,0,0-.543-3.649h-1.392V10.251Zm6.371,17.877h-10V19.766h10Zm-7.46-6.079v3.819h4.959V22.049Zm.806-9.451a29.2,29.2,0,0,1,.588,3.649H145.9a26.205,26.205,0,0,0,.741-3.649Zm8.026,15.871V8.9h8.027v2.3a48.427,48.427,0,0,1-2.2,5.227,9.188,9.188,0,0,1,2.566,6.164,4.135,4.135,0,0,1-1.131,3.135,3.268,3.268,0,0,1-2.369.726h-1.5l-.415-2.582H155.6c1.153,0,1.349-.745,1.349-1.727a6.547,6.547,0,0,0-1.11-3.628,8.167,8.167,0,0,0-1.447-1.642,32.9,32.9,0,0,0,2.111-5.589h-2.514V28.469Z" transform="translate(0.24)" fill="#344c68"/>
  </g>
</svg>
